# Blender v2.77 (sub 0) OBJ File: 'tree.blend'
# www.blender.org
o Cube
v 0.926869 0.124404 -0.585470
v 0.869827 0.029351 1.007000
v -1.073131 0.029351 0.755921
v -0.976854 0.029351 -0.690989
v 0.408884 0.285817 -0.255425
v 0.478286 0.285817 0.465708
v -0.586344 0.285817 0.597114
v -0.343315 0.285817 -0.248957
v 0.778913 0.029351 0.106425
v -0.073131 0.029351 -0.741132
v 0.631360 0.197206 -0.457266
v -0.073131 0.029351 0.793438
v 0.575538 0.245798 0.698557
v -0.714361 0.029351 0.106424
v -1.073132 0.197206 0.755921
v -0.529698 0.134470 -0.316506
v 0.378528 0.285817 0.106425
v -0.073131 0.285817 -0.176382
v -0.073132 0.285817 0.394570
v -0.391769 0.285817 0.106424
v -0.073131 0.197206 -0.419912
v -0.587517 0.197206 0.106424
v -0.073132 0.197206 0.700332
v 0.677359 0.197206 0.106425
v -0.073131 3.360459 -0.633241
v -0.073131 0.029351 0.106425
v 0.428407 0.285817 0.286066
v -0.208223 0.285817 -0.212670
v -0.329738 0.285817 0.495842
v -0.367542 0.285817 -0.071266
v 0.393706 0.285817 -0.074500
v 0.167877 0.285817 -0.215903
v 0.202577 0.285817 0.430139
v -0.489057 0.285817 0.351769
v -0.073132 0.595093 0.250497
v -0.073131 0.595093 -0.034979
v 0.152698 0.595093 0.106425
v -0.232450 0.595093 0.106425
v -0.220337 0.595093 -0.053123
v 0.160288 0.595093 -0.054739
v 0.177638 0.595093 0.268282
v -0.281094 0.595093 0.301133
v -0.073131 3.360459 -0.034979
v -0.073131 4.456272 -0.633241
v -0.232450 3.360459 0.106425
v -0.073132 3.360459 0.250497
v 0.152698 3.360459 0.106425
v -0.174517 3.360459 0.058421
v 0.080427 3.360459 -0.010314
v 0.079212 3.360459 0.242106
v -0.179793 3.360459 0.239886
v 0.927047 4.346294 0.428414
v -0.696862 3.694994 -0.399144
v -1.048482 3.360459 0.250497
v 0.152698 3.360459 0.629987
v -0.174517 3.255003 -0.539841
v 0.080427 3.360459 -0.010314
v -0.896139 3.360459 0.765667
v -1.155143 3.506053 0.239886
v -0.073132 4.635123 0.106425
v -0.759214 4.456272 -0.725262
v -1.571461 4.456272 0.250497
v 0.152698 4.901443 0.629987
v -0.174517 4.320712 -0.539841
v 0.080427 4.597553 -0.010314
v -1.456373 4.456272 0.765667
v -1.155143 4.196814 -0.091724
v 0.927047 3.360459 0.428414
v 0.559844 3.360459 -0.211887
v 0.823421 4.302690 -0.211887
v 0.406286 3.221071 -0.834813
v 0.406286 4.169175 -0.585691
v 0.271340 4.456272 1.070065
v 0.271340 3.559643 1.070065
v -0.777497 3.510224 1.205746
v -0.777497 4.165817 1.205746
v 0.750757 4.291792 0.868492
v 0.750757 3.576110 0.868492
vt 0.7977 0.5687
vt 0.6956 0.6727
vt 0.6887 0.5756
vt 0.5080 0.3450
vt 0.4812 0.3583
vt 0.4786 0.3039
vt 0.3635 0.3251
vt 0.3536 0.3438
vt 0.3252 0.3117
vt 0.4417 0.3438
vt 0.4374 0.3862
vt 0.8985 0.4693
vt 0.9269 0.4720
vt 0.9317 0.4987
vt 0.1438 0.0317
vt 0.2317 0.0504
vt 0.1602 0.0711
vt 0.2101 0.0818
vt 0.1908 0.0887
vt 0.1716 0.0957
vt 0.1335 0.1028
vt 0.0517 0.0959
vt 0.7663 0.8158
vt 0.7146 0.7759
vt 0.7663 0.7204
vt 0.8012 0.8260
vt 0.8277 0.7237
vt 0.8277 0.8272
vt 0.4953 0.3172
vt 0.5255 0.3293
vt 0.4348 0.4140
vt 0.5951 0.4061
vt 0.5936 0.4239
vt 0.3352 0.3718
vt 0.2831 0.4239
vt 0.3976 0.3438
vt 0.7990 0.8566
vt 0.7663 0.7764
vt 0.7990 0.7204
vt 0.3388 0.2515
vt 0.3076 0.3280
vt 0.2927 0.2413
vt 0.3726 0.2670
vt 0.3730 0.2867
vt 0.4063 0.2940
vt 0.1855 0.1455
vt 0.2831 0.5277
vt 0.2643 0.5268
vt 0.8780 0.4177
vt 0.9033 0.4203
vt 0.5543 0.5842
vt 0.5719 0.7204
vt 0.6797 0.4467
vt 0.5680 0.4316
vt 0.9031 0.0000
vt 0.9232 0.0031
vt 0.2073 0.1390
vt 0.2202 0.0899
vt 0.9317 0.4182
vt 0.9627 0.4653
vt 0.9353 0.4639
vt 0.1043 0.1185
vt 0.0954 0.1100
vt 0.1493 0.1533
vt 0.9823 0.4205
vt 0.9923 0.4664
vt 0.9564 0.4194
vt 0.9533 0.0000
vt 0.9740 0.0005
vt 0.4462 0.2956
vt 0.4895 0.0034
vt 0.8702 0.4666
vt 0.8466 0.4151
vt 0.0917 0.6496
vt 0.0116 0.6358
vt 0.0031 0.6166
vt 0.1042 0.6293
vt 0.1042 0.6293
vt 0.1339 0.6654
vt 0.1626 0.8101
vt 0.0775 0.8032
vt 0.8460 0.9423
vt 0.8299 0.8126
vt 0.8486 0.7958
vt 0.4485 0.0000
vt 0.4725 0.0030
vt 0.9317 0.0031
vt 0.9923 0.0018
vt 0.2418 0.5339
vt 0.8299 0.6376
vt 1.0000 0.5600
vt 0.9939 0.6359
vt 0.8509 0.6384
vt 0.9573 0.6925
vt 0.5543 0.6119
vt 0.4315 0.6008
vt 0.5543 0.5075
vt 0.7949 0.1101
vt 0.6716 0.2708
vt 0.6937 0.1066
vt 0.1034 0.6799
vt 0.0691 0.8179
vt 0.0000 0.7182
vt 0.1415 0.6434
vt 0.2032 0.6544
vt 0.8486 0.8101
vt 0.8579 0.7958
vt 0.8579 0.8661
vt 0.0996 0.6691
vt 0.3567 0.6253
vt 0.3649 0.6520
vt 0.2945 0.6784
vt 0.4081 0.5963
vt 0.8299 0.1402
vt 0.7692 0.3609
vt 0.5354 0.7235
vt 0.5389 0.8112
vt 0.2181 0.5339
vt 0.5343 0.5004
vt 0.8835 0.7431
vt 1.0000 0.7958
vt 0.2719 0.5835
vt 0.2742 0.6623
vt 0.7146 0.7941
vt 0.5543 0.8761
vt 0.5589 0.7778
vt 0.7037 0.9009
vt 0.5694 0.9478
vt 0.2831 0.5326
vt 0.3186 0.5057
vt 0.3892 0.5203
vt 0.5061 0.4239
vt 0.1021 0.5504
vt 0.5951 0.1215
vt 0.6868 0.0342
vt 0.5996 0.2817
vt 0.7380 0.0000
vt 0.6889 0.7322
vt 0.2339 0.8179
vt 0.8367 0.5623
vt 0.9694 0.5026
vt 0.8024 0.7204
vt 0.5207 0.3728
vt 0.3734 0.3064
vt 0.8653 0.4829
vt 0.2831 0.0000
vt 0.0000 0.0906
vt 0.7400 0.8078
vt 0.7990 0.7204
vt 0.7730 0.8602
vt 0.8215 0.4239
vt 0.8299 0.4638
vt 0.8486 0.9579
vt 0.4831 0.6679
vt 0.1262 0.6799
vt 0.1257 0.6255
vt 0.8579 0.7958
vt 0.8299 0.3701
vt 0.7146 1.0000
vt 0.0017 0.5374
vt 0.6081 0.0461
vt 0.5759 0.7204
vt 0.8659 0.4987
vn 0.0000 -1.0000 0.0000
vn -0.5821 0.4968 0.6437
vn 0.2834 0.9558 -0.0787
vn 0.1092 0.9547 0.2767
vn -0.6099 0.7881 -0.0832
vn -0.2211 0.8644 -0.4517
vn 0.0915 0.9358 -0.3405
vn -0.0560 0.9383 -0.3414
vn -0.0245 0.8860 -0.4630
vn -0.3071 0.9463 0.1011
vn -0.8753 0.0000 -0.4835
vn -0.4070 0.8991 -0.1614
vn -0.0375 0.0000 0.9993
vn -0.1494 0.7367 0.6595
vn -0.0231 0.9836 0.1787
vn 0.6339 0.7707 -0.0640
vn 0.3134 0.9294 0.1947
vn 0.2842 0.9585 0.0238
vn -0.1140 0.4534 0.8840
vn -0.6775 0.0000 -0.7355
vn -0.8993 0.4320 -0.0683
vn 0.1113 -0.9875 -0.1119
vn -0.9302 0.0000 0.3670
vn 0.1114 0.4132 -0.9038
vn -0.6246 0.3386 -0.7037
vn 0.7984 0.5983 0.0670
vn 0.0000 1.0000 -0.0000
vn -0.1441 0.4545 -0.8790
vn 0.7650 0.6080 -0.2124
vn 0.8503 0.0000 -0.5264
vn 0.2155 0.4123 0.8852
vn 0.2366 0.0129 0.9715
vn -0.8678 0.4471 -0.2168
vn 0.7209 -0.6931 0.0000
vn 0.0000 0.0000 1.0000
vn -0.0122 -0.0816 -0.9966
vn 0.0550 0.0000 0.9985
vn -0.9969 0.0196 -0.0757
vn 0.9878 0.0337 -0.1522
vn -0.0843 0.0136 -0.9963
vn -0.8847 -0.4222 0.1976
vn -0.7109 -0.3044 -0.6340
vn -0.2601 0.0000 -0.9656
vn -0.0969 0.6865 0.7206
vn -0.1995 -0.8915 -0.4067
vn -0.6164 -0.7755 0.1367
vn -0.0966 0.9034 -0.4178
vn -0.8348 0.5352 -0.1294
vn -0.2773 0.8994 -0.3379
vn -0.1505 0.6910 -0.7070
vn -0.7418 -0.3145 -0.5924
vn 0.1843 -0.9131 0.3636
vn 0.9872 0.0000 -0.1598
vn 0.6883 -0.1926 -0.6994
vn 0.3384 0.9335 -0.1183
vn -0.3157 0.2411 -0.9177
vn 0.5111 0.8025 -0.3080
vn 0.3876 0.0000 0.9218
vn 0.1283 0.0000 0.9917
vn 0.6052 0.7236 0.3320
vn 0.9283 0.0000 0.3719
vn 0.0404 -0.9492 0.3121
vn -0.6070 -0.3103 0.7316
vn 0.3955 0.9184 -0.0074
vn 0.0310 0.8294 0.5578
vn -0.4970 0.8459 -0.1934
vn -0.4117 0.9096 -0.0561
vn -0.0141 0.9670 -0.2546
vn -0.2525 0.6363 -0.7289
vn -0.0224 0.9061 -0.4225
vn -0.0042 0.8653 -0.5012
vn -0.7826 0.5914 -0.1947
vn -0.6852 0.5178 -0.5123
vn -0.2306 0.9577 -0.1724
vn 0.0486 0.4845 0.8734
vn -0.0339 0.4848 0.8740
vn -0.0718 0.9671 0.2439
vn -0.0359 0.9599 0.2782
vn 0.8509 0.5148 0.1041
vn 0.8535 0.5164 -0.0697
vn 0.3476 0.9372 -0.0284
vn -0.0642 0.4214 0.9046
vn 0.1222 0.0380 -0.9918
vn -0.8825 0.4546 -0.1203
vn -0.9697 0.0302 -0.2423
vn 0.2313 0.4532 -0.8609
vn 0.8070 0.5893 0.0380
vn 0.4831 0.4139 -0.7715
vn -0.0768 0.4146 -0.9068
vn 0.4840 0.4361 0.7587
vn 0.8014 0.5852 -0.1235
vn 0.9985 0.0281 0.0470
vn 0.3246 0.4668 0.8226
vn -0.0990 0.0000 0.9951
vn -0.8094 0.4917 -0.3210
vn 0.1579 -0.9725 0.1714
vn -0.0707 0.0069 0.9975
vn -0.6380 0.0000 -0.7700
vn 0.8793 0.0000 0.4762
vn 0.1586 0.0000 -0.9873
vn -0.8610 -0.4402 0.2546
vn -0.2721 -0.1299 0.9535
vn 0.2012 -0.3717 -0.9063
vn -0.1396 0.7137 0.6864
vn -0.1474 -0.9874 0.0582
vn -0.2798 -0.8987 -0.3377
vn 0.0590 0.9703 -0.2346
vn 0.3354 0.8254 -0.4542
vn -0.1160 0.9929 0.0259
vn -0.3924 0.9109 0.1278
vn -0.7333 -0.2942 -0.6129
vn 0.1240 -0.8705 0.4762
vn 0.8430 -0.2358 -0.4835
vn 0.9652 0.0664 -0.2528
vn 0.4524 0.7848 -0.4235
vn 0.0987 0.0000 -0.9951
vn -0.1696 -0.9520 0.2548
vn 0.1925 0.8362 -0.5135
vn 0.4698 0.6808 0.5620
vn 0.0936 -0.9163 0.3895
vn -0.9655 0.0000 0.2603
s off
f 12/1/1 14/2/1 26/3/1
f 34/4/2 29/5/2 42/6/2
f 27/7/3 6/8/3 24/9/3
f 19/10/4 29/5/4 23/11/4
f 30/12/5 8/13/5 16/14/5
f 10/15/6 16/16/6 21/17/6
f 21/17/7 8/18/7 28/19/7
f 21/17/8 18/20/8 32/21/8
f 11/22/9 10/15/9 21/17/9
f 14/23/10 16/24/10 4/25/10
f 15/26/11 14/27/11 3/28/11
f 34/4/12 20/29/12 22/30/12
f 12/31/13 15/32/13 3/33/13
f 13/34/14 12/31/14 2/35/14
f 6/8/15 33/36/15 13/34/15
f 9/37/16 13/38/16 2/39/16
f 11/40/17 9/41/17 1/42/17
f 5/43/18 31/44/18 24/9/18
f 41/45/19 19/10/19 33/36/19
f 36/46/20 48/47/20 43/48/20
f 30/12/21 38/49/21 39/50/21
f 10/51/1 14/2/1 4/52/1
f 9/53/22 10/51/22 1/54/22
f 9/53/1 12/1/1 26/3/1
f 38/49/23 51/55/23 45/56/23
f 18/20/24 39/57/24 36/46/24
f 28/19/25 30/58/25 39/57/25
f 40/59/26 17/60/26 31/61/26
f 32/21/27 31/62/27 5/63/27
f 18/20/28 40/64/28 32/21/28
f 27/7/27 33/36/27 6/8/27
f 17/60/29 41/65/29 27/66/29
f 37/67/30 49/68/30 47/69/30
f 42/6/31 19/10/31 35/70/31
f 35/70/32 51/71/32 42/6/32
f 20/72/33 42/73/33 38/49/33
f 43/74/34 56/75/34 25/76/34
f 49/77/35 25/76/35 57/78/35
f 46/79/1 58/80/1 54/81/1
f 51/82/36 54/83/36 59/84/36
f 35/70/37 50/85/37 46/86/37
f 38/49/38 48/87/38 39/50/38
f 37/67/39 50/88/39 41/65/39
f 36/46/40 49/89/40 40/64/40
f 54/90/41 66/91/41 62/92/41
f 59/93/42 62/92/42 67/94/42
f 53/95/43 64/96/43 56/97/43
f 63/98/44 76/99/44 73/100/44
f 45/101/45 59/102/45 53/103/45
f 50/104/1 55/105/1 58/80/1
f 47/106/27 57/107/27 55/108/27
f 48/109/46 53/103/46 56/75/46
f 65/110/47 60/111/47 63/112/47
f 64/96/48 60/111/48 44/113/48
f 60/114/49 66/115/49 63/98/49
f 60/111/50 67/116/50 62/117/50
f 57/78/1 68/118/1 55/105/1
f 25/119/20 64/96/20 44/113/20
f 53/120/51 67/94/51 61/121/51
f 55/105/52 78/122/52 74/123/52
f 68/124/53 70/125/53 52/126/53
f 69/127/54 72/128/54 70/125/54
f 65/110/55 52/129/55 70/130/55
f 25/119/56 72/131/56 71/132/56
f 25/76/1 69/133/1 57/78/1
f 65/110/57 72/131/57 44/113/57
f 74/134/58 77/135/58 73/100/58
f 74/134/59 76/99/59 75/136/59
f 63/98/60 77/135/60 52/137/60
f 52/126/61 78/138/61 68/124/61
f 55/105/62 75/139/62 58/80/62
f 58/140/63 76/141/63 66/91/63
f 12/1/1 3/142/1 14/2/1
f 34/4/27 7/143/27 29/5/27
f 13/34/64 24/9/64 6/8/64
f 17/144/3 27/7/3 24/9/3
f 15/32/65 23/11/65 7/143/65
f 29/5/4 7/143/4 23/11/4
f 16/14/66 22/145/66 30/12/66
f 20/72/67 30/12/67 22/145/67
f 10/15/68 4/146/68 16/16/68
f 28/19/7 18/20/7 21/17/7
f 21/17/69 16/16/69 8/18/69
f 32/21/8 5/63/8 21/17/8
f 11/22/70 21/17/70 5/63/70
f 11/22/71 1/147/71 10/15/71
f 14/23/72 22/148/72 16/24/72
f 15/26/73 22/149/73 14/27/73
f 22/30/74 15/32/74 7/143/74
f 7/143/12 34/4/12 22/30/12
f 12/31/75 23/11/75 15/32/75
f 13/34/76 23/11/76 12/31/76
f 23/11/77 13/34/77 33/36/77
f 33/36/78 19/10/78 23/11/78
f 9/37/79 24/150/79 13/38/79
f 11/40/80 24/9/80 9/41/80
f 24/9/81 11/40/81 5/43/81
f 31/44/18 17/144/18 24/9/18
f 41/45/82 35/70/82 19/10/82
f 36/46/83 39/57/83 48/47/83
f 30/12/84 20/72/84 38/49/84
f 10/51/1 26/3/1 14/2/1
f 9/53/1 26/3/1 10/51/1
f 9/53/1 2/151/1 12/1/1
f 38/49/85 42/73/85 51/55/85
f 18/20/86 28/19/86 39/57/86
f 28/19/27 8/18/27 30/58/27
f 40/59/87 37/67/87 17/60/87
f 32/21/88 40/64/88 31/62/88
f 18/20/89 36/46/89 40/64/89
f 27/7/90 41/45/90 33/36/90
f 17/60/91 37/67/91 41/65/91
f 37/67/92 40/59/92 49/68/92
f 42/6/93 29/5/93 19/10/93
f 35/70/94 46/86/94 51/71/94
f 20/72/95 34/152/95 42/73/95
f 43/74/96 48/109/96 56/75/96
f 49/77/1 43/74/1 25/76/1
f 46/79/1 50/104/1 58/80/1
f 51/82/1 46/153/1 54/83/1
f 35/70/97 41/45/97 50/85/97
f 38/49/98 45/56/98 48/87/98
f 37/67/99 47/69/99 50/88/99
f 36/46/100 43/48/100 49/89/100
f 54/90/101 58/140/101 66/91/101
f 59/93/102 54/90/102 62/92/102
f 53/95/103 61/154/103 64/96/103
f 63/98/104 66/115/104 76/99/104
f 45/101/105 51/155/105 59/102/105
f 50/104/1 47/156/1 55/105/1
f 47/106/35 49/157/35 57/107/35
f 48/109/106 45/101/106 53/103/106
f 65/110/107 44/113/107 60/111/107
f 64/96/108 61/154/108 60/111/108
f 60/114/109 62/158/109 66/115/109
f 60/111/110 61/154/110 67/116/110
f 57/78/1 69/133/1 68/118/1
f 25/119/20 56/97/20 64/96/20
f 53/120/111 59/93/111 67/94/111
f 55/105/112 68/118/112 78/122/112
f 68/124/113 69/127/113 70/125/113
f 69/127/114 71/159/114 72/128/114
f 65/110/115 63/112/115 52/129/115
f 25/119/116 44/113/116 72/131/116
f 25/76/117 71/160/117 69/133/117
f 65/110/118 70/130/118 72/131/118
f 74/134/58 78/161/58 77/135/58
f 74/134/59 73/100/59 76/99/59
f 63/98/119 73/100/119 77/135/119
f 52/126/61 77/162/61 78/138/61
f 55/105/120 74/123/120 75/139/120
f 58/140/121 75/163/121 76/141/121
